<svg width="800" height="400" viewBox="0 0 800 400" xmlns="http://www.w3.org/2000/svg"><defs><pattern id="satori_pattern_id_1" x="0" y="0" width="0.125" height="0.25" patternUnits="objectBoundingBox"><radialGradient id="satori_radial_id_1"><stop offset="0" stop-color="lightgray"/><stop offset="0.02" stop-color="lightgray"/><stop offset="0" stop-color="transparent"/><stop offset="1" stop-color="transparent"/></radialGradient><mask id="satori_mask_id_1"><rect x="0" y="0" width="100" height="100" fill="#fff"/></mask><rect x="0" y="0" width="100" height="100" fill="transparent"/><circle cx="75" cy="75" width="100" height="100" r="106.06601717798213" fill="url(#satori_radial_id_1)" mask="url(#satori_mask_id_1)"/></pattern><pattern id="satori_pattern_id_0" x="0" y="0" width="0.125" height="0.25" patternUnits="objectBoundingBox"><radialGradient id="satori_radial_id_0"><stop offset="0" stop-color="lightgray"/><stop offset="0.02" stop-color="lightgray"/><stop offset="0" stop-color="transparent"/><stop offset="1" stop-color="transparent"/></radialGradient><mask id="satori_mask_id_0"><rect x="0" y="0" width="100" height="100" fill="#fff"/></mask><rect x="0" y="0" width="100" height="100" fill="transparent"/><circle cx="25" cy="25" width="100" height="100" r="106.06601717798213" fill="url(#satori_radial_id_0)" mask="url(#satori_mask_id_0)"/></pattern></defs><mask id="satori_om-id"><rect x="0" y="0" width="800" height="400" fill="#fff"/></mask><rect x="0" y="0" width="800" height="400" fill="white"/><rect x="0" y="0" width="800" height="400" fill="url(#satori_pattern_id_1)"/><rect x="0" y="0" width="800" height="400" fill="url(#satori_pattern_id_0)"/><mask id="satori_om-id-0"><rect x="163" y="142" width="474" height="116" fill="#fff"/></mask><mask id="satori_om-id-0-0"><rect x="163" y="142" width="474" height="116" fill="#fff"/></mask><path fill="black" d="M176.5 202.7L176.5 202.7L176.5 222.9L166.9 222.9L166.9 188.0L176.1 188.0L176.1 194.1L176.5 194.1Q177.7 191.1 180.4 189.3Q183.1 187.5 187 187.5L187 187.5Q190.6 187.5 193.3 189.1Q196.0 190.7 197.5 193.6Q199.0 196.6 199.0 200.6L199.0 200.6L199.0 222.9L189.4 222.9L189.4 202.4Q189.4 199.2 187.7 197.4Q186.1 195.6 183.2 195.6L183.2 195.6Q181.2 195.6 179.7 196.4Q178.2 197.2 177.4 198.8Q176.6 200.4 176.5 202.7ZM216.3 222.9L206.7 222.9L206.7 188.0L216.3 188.0L216.3 222.9ZM211.5 183.5L211.5 183.5Q209.4 183.5 207.8 182.0Q206.3 180.6 206.3 178.6L206.3 178.6Q206.3 176.6 207.8 175.1Q209.4 173.7 211.5 173.7L211.5 173.7Q213.7 173.7 215.2 175.1Q216.8 176.6 216.8 178.6L216.8 178.6Q216.8 180.6 215.2 182.0Q213.7 183.5 211.5 183.5ZM239.8 223.6L239.8 223.6Q234.5 223.6 230.6 221.3Q226.8 219.0 224.7 214.9Q222.7 210.8 222.7 205.6L222.7 205.6Q222.7 200.2 224.7 196.1Q226.8 192.1 230.7 189.8Q234.5 187.5 239.8 187.5L239.8 187.5Q244.4 187.5 247.8 189.2Q251.2 190.8 253.2 193.8Q255.2 196.8 255.4 200.9L255.4 200.9L246.3 200.9Q245.9 198.3 244.3 196.7Q242.6 195.1 240.0 195.1L240.0 195.1Q237.7 195.1 236.0 196.3Q234.4 197.5 233.4 199.8Q232.5 202.1 232.5 205.4L232.5 205.4Q232.5 208.8 233.4 211.1Q234.3 213.4 236.0 214.7Q237.7 215.9 240.0 215.9L240.0 215.9Q241.6 215.9 242.9 215.2Q244.3 214.5 245.1 213.2Q246.0 211.9 246.3 210.1L246.3 210.1L255.4 210.1Q255.2 214.1 253.3 217.1Q251.3 220.1 247.9 221.8Q244.5 223.6 239.8 223.6ZM271.3 202.7L271.3 202.7L271.3 222.9L261.7 222.9L261.7 176.3L271.1 176.3L271.1 194.1L271.5 194.1Q272.7 191.0 275.3 189.3Q277.9 187.5 281.9 187.5L281.9 187.5Q285.5 187.5 288.3 189.1Q291.0 190.7 292.5 193.6Q294 196.6 294.0 200.6L294.0 200.6L294.0 222.9L284.3 222.9L284.3 202.4Q284.3 199.1 282.7 197.3Q281.0 195.6 278.1 195.6L278.1 195.6Q276.1 195.6 274.6 196.4Q273.1 197.2 272.2 198.8Q271.4 200.4 271.3 202.7ZM317.4 223.6L317.4 223.6Q312.1 223.6 308.2 221.3Q304.4 219.0 302.3 215.0Q300.2 210.9 300.2 205.6L300.2 205.6Q300.2 200.1 302.3 196.1Q304.4 192.0 308.2 189.8Q312.1 187.5 317.4 187.5L317.4 187.5Q322.7 187.5 326.5 189.8Q330.4 192.0 332.5 196.1Q334.6 200.1 334.6 205.6L334.6 205.6Q334.6 210.9 332.5 215.0Q330.4 219.0 326.5 221.3Q322.7 223.6 317.4 223.6ZM317.4 216.1L317.4 216.1Q319.8 216.1 321.5 214.7Q323.1 213.3 323.9 210.9Q324.7 208.5 324.7 205.5L324.7 205.5Q324.7 202.4 323.9 200.1Q323.1 197.7 321.5 196.3Q319.8 194.9 317.4 194.9L317.4 194.9Q315 194.9 313.4 196.3Q311.7 197.7 310.9 200.1Q310.0 202.4 310.0 205.5L310.0 205.5Q310.0 208.5 310.9 210.9Q311.7 213.3 313.4 214.7Q315 216.1 317.4 216.1ZM340.9 176.3L350.6 176.3L350.6 222.9L340.9 222.9L340.9 176.3ZM368.3 223.5L368.3 223.5Q364.9 223.5 362.3 222.4Q359.7 221.2 358.2 218.9Q356.7 216.6 356.7 213.1L356.7 213.1Q356.7 210.2 357.7 208.2Q358.8 206.3 360.6 205.1Q362.5 203.8 364.8 203.2Q367.2 202.6 369.8 202.4L369.8 202.4Q372.8 202.1 374.7 201.8Q376.5 201.5 377.4 200.9Q378.2 200.3 378.2 199.2L378.2 199.2L378.2 199.1Q378.2 196.9 376.9 195.8Q375.5 194.6 373.0 194.6L373.0 194.6Q370.4 194.6 368.9 195.7Q367.3 196.9 366.8 198.6L366.8 198.6L357.9 197.9Q358.6 194.7 360.6 192.4Q362.6 190.0 365.7 188.8Q368.9 187.5 373.1 187.5L373.1 187.5Q376 187.5 378.7 188.2Q381.3 188.9 383.4 190.3Q385.5 191.7 386.7 194.0Q387.9 196.2 387.9 199.3L387.9 199.3L387.9 222.9L378.7 222.9L378.7 218.0L378.5 218.0Q377.6 219.7 376.2 220.9Q374.8 222.1 372.8 222.8Q370.8 223.5 368.3 223.5ZM371.0 216.8L371.0 216.8Q373.2 216.8 374.8 216.0Q376.4 215.1 377.4 213.7Q378.3 212.2 378.3 210.4L378.3 210.4L378.3 206.7Q377.8 207.0 377.1 207.2Q376.3 207.5 375.3 207.7Q374.3 207.8 373.3 208.0Q372.4 208.1 371.6 208.3L371.6 208.3Q369.9 208.5 368.6 209.1Q367.3 209.6 366.6 210.5Q365.9 211.4 365.9 212.8L365.9 212.8Q365.9 214.8 367.4 215.8Q368.8 216.8 371.0 216.8ZM424.5 197.9L424.5 197.9L415.6 198.5Q415.4 197.3 414.6 196.4Q413.9 195.5 412.7 194.9Q411.5 194.4 409.8 194.4L409.8 194.4Q407.5 194.4 406.0 195.3Q404.4 196.3 404.4 197.8L404.4 197.8Q404.4 199.1 405.4 199.9Q406.4 200.8 408.9 201.3L408.9 201.3L415.2 202.6Q420.3 203.6 422.8 206.0Q425.3 208.3 425.3 212.1L425.3 212.1Q425.3 215.5 423.3 218.1Q421.3 220.7 417.8 222.1Q414.3 223.6 409.7 223.6L409.7 223.6Q402.8 223.6 398.7 220.7Q394.6 217.8 393.9 212.8L393.9 212.8L403.4 212.3Q403.8 214.4 405.5 215.5Q407.2 216.6 409.8 216.6L409.8 216.6Q412.3 216.6 413.9 215.6Q415.4 214.6 415.4 213.0L415.4 213.0Q415.4 211.7 414.3 210.9Q413.2 210.0 411.0 209.6L411.0 209.6L404.9 208.3Q399.8 207.3 397.3 204.8Q394.8 202.3 394.8 198.4L394.8 198.4Q394.8 195.0 396.6 192.6Q398.5 190.1 401.8 188.8Q405.1 187.5 409.6 187.5L409.6 187.5Q416.2 187.5 420.0 190.3Q423.8 193.1 424.5 197.9ZM431.4 176.3L441.1 176.3L441.1 222.9L431.4 222.9L431.4 176.3ZM454.8 236.0L454.8 236.0Q452.9 236.0 451.3 235.7Q449.7 235.4 448.7 235.0L448.7 235.0L450.9 227.7Q452.6 228.3 453.9 228.3Q455.3 228.3 456.3 227.7Q457.3 227.0 458.0 225.3L458.0 225.3L458.5 223.9L446.0 188.0L456.2 188.0L463.4 213.6L463.8 213.6L471.1 188.0L481.3 188.0L467.8 226.6Q466.8 229.5 465.1 231.6Q463.5 233.7 460.9 234.8Q458.4 236.0 454.8 236.0ZM489.8 223.5L489.8 223.5Q487.5 223.5 485.9 221.9Q484.3 220.3 484.3 218.0L484.3 218.0Q484.3 215.8 485.9 214.2Q487.5 212.6 489.8 212.6L489.8 212.6Q492.0 212.6 493.6 214.2Q495.2 215.8 495.2 218.0L495.2 218.0Q495.2 219.5 494.5 220.7Q493.7 222.0 492.5 222.7Q491.3 223.5 489.8 223.5ZM518.9 223.6L518.9 223.6Q513.6 223.6 509.7 221.3Q505.9 219.0 503.8 214.9Q501.8 210.8 501.8 205.6L501.8 205.6Q501.8 200.2 503.8 196.1Q505.9 192.1 509.8 189.8Q513.6 187.5 518.9 187.5L518.9 187.5Q523.5 187.5 526.9 189.2Q530.3 190.8 532.3 193.8Q534.3 196.8 534.5 200.9L534.5 200.9L525.4 200.9Q525 198.3 523.4 196.7Q521.7 195.1 519.0 195.1L519.0 195.1Q516.8 195.1 515.1 196.3Q513.5 197.5 512.5 199.8Q511.6 202.1 511.6 205.4L511.6 205.4Q511.6 208.8 512.5 211.1Q513.4 213.4 515.1 214.7Q516.8 215.9 519.0 215.9L519.0 215.9Q520.7 215.9 522.0 215.2Q523.4 214.5 524.2 213.2Q525.1 211.9 525.4 210.1L525.4 210.1L534.5 210.1Q534.3 214.1 532.4 217.1Q530.4 220.1 527 221.8Q523.6 223.6 518.9 223.6ZM556.5 223.6L556.5 223.6Q551.2 223.6 547.4 221.3Q543.5 219.0 541.4 215.0Q539.3 210.9 539.3 205.6L539.3 205.6Q539.3 200.1 541.4 196.1Q543.5 192.0 547.4 189.8Q551.2 187.5 556.5 187.5L556.5 187.5Q561.8 187.5 565.7 189.8Q569.5 192.0 571.6 196.1Q573.7 200.1 573.7 205.6L573.7 205.6Q573.7 210.9 571.6 215.0Q569.5 219.0 565.7 221.3Q561.8 223.6 556.5 223.6ZM556.6 216.1L556.6 216.1Q559.0 216.1 560.6 214.7Q562.2 213.3 563.0 210.9Q563.9 208.5 563.9 205.5L563.9 205.5Q563.9 202.4 563.0 200.1Q562.2 197.7 560.6 196.3Q559.0 194.9 556.6 194.9L556.6 194.9Q554.1 194.9 552.5 196.3Q550.8 197.7 550.0 200.1Q549.2 202.4 549.2 205.5L549.2 205.5Q549.2 208.5 550.0 210.9Q550.8 213.3 552.5 214.7Q554.1 216.1 556.6 216.1ZM589.7 222.9L580.0 222.9L580.0 188.0L589.3 188.0L589.3 194.1L589.7 194.1Q590.8 191.1 593.3 189.3Q595.8 187.5 599.4 187.5L599.4 187.5Q603.0 187.5 605.5 189.3Q608.0 191.1 608.9 194.1L608.9 194.1L609.2 194.1Q610.3 191.1 613.1 189.3Q615.9 187.5 619.8 187.5L619.8 187.5Q624.6 187.5 627.7 190.6Q630.8 193.7 630.8 199.4L630.8 199.4L630.8 222.9L621.1 222.9L621.1 201.3Q621.1 198.4 619.5 196.9Q618 195.5 615.7 195.5L615.7 195.5Q613.0 195.5 611.6 197.2Q610.1 198.8 610.1 201.6L610.1 201.6L610.1 222.9L600.7 222.9L600.7 201.1Q600.7 198.5 599.2 197.0Q597.8 195.5 595.4 195.5L595.4 195.5Q593.8 195.5 592.5 196.3Q591.2 197.1 590.5 198.5Q589.7 200.0 589.7 201.9L589.7 201.9L589.7 222.9Z "/></svg>